<svg width="21" height="13" viewBox="0 0 21 13" fill="none" xmlns="http://www.w3.org/2000/svg">
<path fill-rule="evenodd" clip-rule="evenodd" d="M13.5552 12.7273C13.4688 12.641 13.4002 12.5386 13.3534 12.4258C13.3066 12.313 13.2825 12.1921 13.2825 12.07C13.2825 11.9479 13.3066 11.8269 13.3534 11.7142C13.4002 11.6014 13.4688 11.4989 13.5552 11.4127L18.47 6.49976L13.5552 1.58683C13.3809 1.4125 13.283 1.17607 13.283 0.929542C13.283 0.683012 13.3809 0.446579 13.5552 0.272256C13.7295 0.0979328 13.966 -2.98767e-08 14.2125 -4.06528e-08C14.459 -5.1429e-08 14.6955 0.0979328 14.8698 0.272256L20.44 5.84247C20.5265 5.92871 20.595 6.03116 20.6418 6.14394C20.6887 6.25673 20.7127 6.37764 20.7127 6.49976C20.7127 6.62187 20.6887 6.74278 20.6418 6.85557C20.595 6.96836 20.5265 7.0708 20.44 7.15704L14.8698 12.7273C14.7835 12.8137 14.6811 12.8823 14.5683 12.9291C14.4555 12.9759 14.3346 13 14.2125 13C14.0904 13 13.9695 12.9759 13.8567 12.9291C13.7439 12.8823 13.6415 12.8137 13.5552 12.7273Z" fill="white"/>
<path fill-rule="evenodd" clip-rule="evenodd" d="M0.287109 6.49985C0.287109 6.25363 0.38492 6.0175 0.559023 5.8434C0.733126 5.66929 0.96926 5.57148 1.21548 5.57148L17.9261 5.57148C18.1723 5.57148 18.4085 5.66929 18.5826 5.8434C18.7567 6.0175 18.8545 6.25363 18.8545 6.49985C18.8545 6.74607 18.7567 6.98221 18.5826 7.15631C18.4085 7.33041 18.1723 7.42822 17.9261 7.42822L1.21548 7.42822C0.96926 7.42822 0.733126 7.33041 0.559023 7.15631C0.38492 6.98221 0.287109 6.74607 0.287109 6.49985Z" fill="white"/>
</svg>
