<svg width="23" height="23" viewBox="0 0 23 23" fill="none" xmlns="http://www.w3.org/2000/svg">
<path d="M2.38711 8.34601C1.32976 6.22406 2.39661 3.88223 4.42955 2.66247C5.40832 2.0752 6.6733 2.33007 7.34831 3.25052L8.84586 5.29264C9.48325 6.16182 9.58095 7.3145 9.09892 8.27855L8.70627 9.06386C8.5926 9.29119 8.57463 9.55417 8.6909 9.78018C8.90274 10.1919 9.35384 10.9216 10.2229 11.7907C11.0919 12.6597 11.8216 13.1108 12.2333 13.3226C12.4593 13.4389 12.7223 13.4209 12.9497 13.3072L13.735 12.9146C14.699 12.4326 15.8517 12.5303 16.7209 13.1677L18.763 14.6652C19.6835 15.3402 19.9383 16.6052 19.351 17.584C18.1313 19.6169 15.7895 20.6838 13.6675 19.6264C11.8791 18.7353 9.59383 17.2604 7.17345 14.8401C4.75308 12.4197 3.27824 10.1344 2.38711 8.34601Z" fill="white"/>
</svg>
