<svg width="24" height="24" viewBox="0 0 24 24" fill="none" xmlns="http://www.w3.org/2000/svg">
<path d="M16.5 4.35H7.5C4.8 4.35 3 5.7 3 8.85V15.15C3 18.3 4.8 19.65 7.5 19.65H16.5C19.2 19.65 21 18.3 21 15.15V8.85C21 5.7 19.2 4.35 16.5 4.35ZM16.923 9.831L14.106 12.081C13.512 12.558 12.756 12.792 12 12.792C11.244 12.792 10.479 12.558 9.894 12.081L7.077 9.831C6.789 9.597 6.744 9.165 6.969 8.877C7.203 8.589 7.626 8.535 7.914 8.769L10.731 11.019C11.415 11.568 12.576 11.568 13.26 11.019L16.077 8.769C16.365 8.535 16.797 8.58 17.022 8.877C17.256 9.165 17.211 9.597 16.923 9.831Z" fill="white"/>
</svg>
