<svg width="18" height="17" viewBox="0 0 18 17" fill="none" xmlns="http://www.w3.org/2000/svg">
<path d="M12.0513 5.35898C13.1734 5.35898 14.2495 5.78243 15.0429 6.53618C15.8364 7.28994 16.2821 8.31224 16.2821 9.37821V14.0673H13.4616V9.37821C13.4616 9.02289 13.313 8.68212 13.0485 8.43087C12.7841 8.17962 12.4254 8.03847 12.0513 8.03847C11.6773 8.03847 11.3186 8.17962 11.0541 8.43087C10.7897 8.68212 10.6411 9.02289 10.6411 9.37821V14.0673H7.82056V9.37821C7.82056 8.31224 8.2663 7.28994 9.05972 6.53618C9.85314 5.78243 10.9293 5.35898 12.0513 5.35898V5.35898Z" stroke="white" stroke-width="0.846154" stroke-linecap="round" stroke-linejoin="round"/>
<path d="M5.00008 6.02885H2.17957V14.0673H5.00008V6.02885Z" stroke="white" stroke-width="0.846154" stroke-linecap="round" stroke-linejoin="round"/>
<path d="M3.58982 4.01923C4.36869 4.01923 5.00008 3.41941 5.00008 2.67949C5.00008 1.93957 4.36869 1.33974 3.58982 1.33974C2.81096 1.33974 2.17957 1.93957 2.17957 2.67949C2.17957 3.41941 2.81096 4.01923 3.58982 4.01923Z" stroke="white" stroke-width="0.846154" stroke-linecap="round" stroke-linejoin="round"/>
</svg>
