<svg width="18" height="17" viewBox="0 0 18 17" fill="none" xmlns="http://www.w3.org/2000/svg">
<g clip-path="url(#clip0_2285_44)">
<path d="M9.3078 1.99756C11.3788 1.99756 11.6241 2.00493 12.4421 2.04043C12.9338 2.04588 13.4209 2.13176 13.882 2.29432C14.219 2.41228 14.5239 2.60069 14.774 2.84562C15.0318 3.08322 15.2301 3.37281 15.3543 3.69301C15.5254 4.131 15.6158 4.59373 15.6215 5.06089C15.6589 5.83794 15.6666 6.07105 15.6666 8.03847C15.6666 10.0059 15.6589 10.239 15.6215 11.016C15.6158 11.4832 15.5254 11.9459 15.3543 12.3839C15.2252 12.7018 15.0275 12.9904 14.7739 13.2313C14.5204 13.4722 14.2165 13.66 13.882 13.7826C13.4209 13.9452 12.9338 14.0311 12.4421 14.0365C11.6241 14.072 11.3788 14.0794 9.3078 14.0794C7.23684 14.0794 6.99146 14.072 6.17351 14.0365C5.68176 14.0311 5.19468 13.9452 4.73364 13.7826C4.39659 13.6647 4.09175 13.4762 3.84165 13.2313C3.58383 12.9937 3.3855 12.7041 3.26133 12.3839C3.09022 11.9459 2.99981 11.4832 2.99408 11.016C2.95671 10.239 2.94896 10.0059 2.94896 8.03847C2.94896 6.07105 2.95671 5.83794 2.99408 5.06089C2.99981 4.59373 3.09022 4.131 3.26133 3.69301C3.3855 3.37281 3.58383 3.08322 3.84165 2.84562C4.09175 2.60069 4.39659 2.41228 4.73364 2.29432C5.19468 2.13176 5.68176 2.04588 6.17351 2.04043C6.99146 2.00493 7.23684 1.99756 9.3078 1.99756ZM9.3078 0.669876C7.20158 0.669876 6.93716 0.678584 6.11005 0.714088C5.46668 0.726719 4.83017 0.842447 4.22735 1.05639C3.71159 1.24608 3.24328 1.53615 2.8525 1.90796C2.46173 2.27977 2.15712 2.72512 1.95825 3.21539C1.73304 3.78806 1.61123 4.39275 1.59793 5.00395C1.56056 5.78636 1.55139 6.03756 1.55139 8.03847C1.55139 10.0394 1.56056 10.2906 1.59793 11.0763C1.61123 11.6875 1.73304 12.2922 1.95825 12.8649C2.15792 13.3549 2.46325 13.7998 2.85464 14.171C3.24602 14.5422 3.7148 14.8316 4.23088 15.0205C4.83369 15.2345 5.4702 15.3502 6.11357 15.3628C6.93716 15.3983 7.20158 15.4071 9.3078 15.4071C11.414 15.4071 11.6784 15.3983 12.5056 15.3628C13.1489 15.3502 13.7854 15.2345 14.3883 15.0205C14.904 14.8309 15.3723 14.5408 15.7631 14.169C16.1539 13.7972 16.4585 13.3518 16.6574 12.8615C16.8826 12.2889 17.0044 11.6842 17.0177 11.073C17.055 10.2906 17.0642 10.0394 17.0642 8.03847C17.0642 6.03756 17.055 5.78636 17.0177 5.0006C17.0044 4.3894 16.8826 3.78471 16.6574 3.21204C16.4577 2.72206 16.1523 2.27717 15.761 1.90593C15.3696 1.53469 14.9008 1.24532 14.3847 1.05639C13.7819 0.842447 13.1454 0.726719 12.502 0.714088C11.6784 0.678584 11.414 0.669876 9.3078 0.669876Z" fill="white"/>
<path d="M9.30773 4.25436C8.51992 4.25436 7.74979 4.47629 7.09475 4.89209C6.4397 5.3079 5.92916 5.89889 5.62767 6.59035C5.32619 7.2818 5.24731 8.04266 5.401 8.7767C5.5547 9.51075 5.93407 10.185 6.49114 10.7142C7.04821 11.2434 7.75796 11.6038 8.53064 11.7499C9.30332 11.8959 10.1042 11.8209 10.8321 11.5345C11.5599 11.2481 12.182 10.7631 12.6197 10.1408C13.0574 9.51851 13.291 8.78689 13.291 8.03846C13.291 7.03485 12.8713 6.07235 12.1243 5.3627C11.3773 4.65304 10.3642 4.25436 9.30773 4.25436ZM9.30773 10.4949C8.79633 10.4949 8.29641 10.3508 7.87119 10.0809C7.44598 9.81099 7.11456 9.42735 6.91885 8.97849C6.72315 8.52964 6.67194 8.03574 6.77171 7.55924C6.87148 7.08274 7.11775 6.64505 7.47936 6.30151C7.84098 5.95797 8.30171 5.72402 8.80329 5.62924C9.30487 5.53446 9.82476 5.58311 10.2972 5.76903C10.7697 5.95495 11.1735 6.26979 11.4577 6.67375C11.7418 7.0777 11.8934 7.55263 11.8934 8.03846C11.8934 8.68995 11.621 9.31474 11.1361 9.77541C10.6512 10.2361 9.99351 10.4949 9.30773 10.4949Z" fill="white"/>
<path d="M13.4482 4.98921C13.9623 4.98921 14.379 4.59333 14.379 4.10498C14.379 3.61663 13.9623 3.22075 13.4482 3.22075C12.9342 3.22075 12.5175 3.61663 12.5175 4.10498C12.5175 4.59333 12.9342 4.98921 13.4482 4.98921Z" fill="white"/>
</g>
<defs>
<clipPath id="clip0_2285_44">
<rect width="16.9231" height="16.0769" fill="white" transform="translate(0.846191)"/>
</clipPath>
</defs>
</svg>
