<svg width="18" height="17" viewBox="0 0 18 17" fill="none" xmlns="http://www.w3.org/2000/svg">
<g clip-path="url(#clip0_2285_41)">
<path d="M17.8462 3.08141C17.2116 3.34936 16.5769 3.55032 15.8718 3.61731C16.5769 3.21538 17.141 2.54551 17.4231 1.80865C16.718 2.21057 16.0128 2.47852 15.2372 2.6125C14.6026 1.94263 13.6859 1.5407 12.6987 1.5407C10.7949 1.5407 9.24361 3.01442 9.24361 4.82308C9.24361 5.09102 9.24361 5.35897 9.31412 5.55993C6.35258 5.42596 3.81412 4.08622 2.12181 2.0766C1.76925 2.6125 1.62822 3.1484 1.62822 3.75128C1.62822 4.89006 2.26284 5.89487 3.17951 6.49776C2.6154 6.49776 2.0513 6.36378 1.62822 6.09583C1.62822 6.09583 1.62822 6.09583 1.62822 6.16282C1.62822 7.77051 2.82694 9.11026 4.37822 9.3782C4.09617 9.44519 3.81412 9.51218 3.46156 9.51218C3.25002 9.51218 3.03848 9.51218 2.82694 9.44519C3.25002 10.7849 4.51925 11.7228 6.07053 11.7228C4.87181 12.5936 3.39104 13.1295 1.76925 13.1295C1.4872 13.1295 1.20515 13.1295 0.923096 13.0625C2.47438 14.0003 4.30771 14.5362 6.21156 14.5362C12.6282 14.5362 16.0834 9.51218 16.0834 5.15801C16.0834 5.02404 16.0834 4.89006 16.0834 4.75609C16.7885 4.28718 17.3526 3.68429 17.8462 3.08141Z" fill="white"/>
</g>
<defs>
<clipPath id="clip0_2285_41">
<rect width="16.9231" height="16.0769" fill="white" transform="translate(0.923096)"/>
</clipPath>
</defs>
</svg>
