<svg width="472" height="184" viewBox="0 0 472 184" fill="none" xmlns="http://www.w3.org/2000/svg">
<path d="M12.7322 7.45668C12.647 6.5973 12.2813 5.92969 11.6349 5.45383C10.9886 4.97798 10.1115 4.74006 9.00355 4.74006C8.25071 4.74006 7.61506 4.84659 7.09659 5.05966C6.57813 5.26562 6.1804 5.55327 5.90341 5.92258C5.63352 6.2919 5.49858 6.71094 5.49858 7.17969C5.48438 7.57031 5.56605 7.91122 5.74361 8.20241C5.92827 8.49361 6.1804 8.74574 6.5 8.95881C6.8196 9.16477 7.18892 9.34588 7.60795 9.50213C8.02699 9.65128 8.47443 9.77912 8.95028 9.88565L10.9105 10.3544C11.8622 10.5675 12.7358 10.8516 13.5312 11.2067C14.3267 11.5618 15.0156 11.9986 15.598 12.517C16.1804 13.0355 16.6314 13.6463 16.951 14.3494C17.2777 15.0526 17.4446 15.8587 17.4517 16.7678C17.4446 18.103 17.1037 19.2607 16.429 20.2408C15.7614 21.2138 14.7955 21.9702 13.5312 22.5099C12.2741 23.0426 10.7578 23.3089 8.98224 23.3089C7.22088 23.3089 5.68679 23.0391 4.37997 22.4993C3.08026 21.9595 2.06463 21.1605 1.3331 20.1023C0.608665 19.0369 0.228693 17.7195 0.193182 16.1499H4.65696C4.70668 16.8814 4.91619 17.4922 5.28551 17.9822C5.66193 18.4652 6.16264 18.831 6.78764 19.0795C7.41974 19.321 8.13352 19.4418 8.92898 19.4418C9.71023 19.4418 10.3885 19.3281 10.9638 19.1009C11.5462 18.8736 11.9972 18.5575 12.3168 18.1527C12.6364 17.7479 12.7962 17.2827 12.7962 16.7571C12.7962 16.267 12.6506 15.8551 12.3594 15.5213C12.0753 15.1875 11.6563 14.9034 11.1023 14.669C10.5554 14.4347 9.88423 14.2216 9.08878 14.0298L6.71307 13.4332C4.87358 12.9858 3.42116 12.2862 2.35582 11.3345C1.29048 10.3828 0.761364 9.10085 0.768466 7.48864C0.761364 6.16761 1.11293 5.01349 1.82315 4.02628C2.54048 3.03906 3.52415 2.26847 4.77415 1.71449C6.02415 1.16051 7.4446 0.883522 9.03551 0.883522C10.6548 0.883522 12.0682 1.16051 13.2756 1.71449C14.4901 2.26847 15.4347 3.03906 16.1094 4.02628C16.7841 5.01349 17.1321 6.15696 17.1534 7.45668H12.7322ZM34.0311 1.18182H38.644V15.3509C38.644 16.9418 38.264 18.3338 37.5041 19.527C36.7512 20.7202 35.6966 21.6506 34.34 22.3182C32.9835 22.9787 31.4032 23.3089 29.5993 23.3089C27.7882 23.3089 26.2044 22.9787 24.8478 22.3182C23.4913 21.6506 22.4366 20.7202 21.6838 19.527C20.9309 18.3338 20.5545 16.9418 20.5545 15.3509V1.18182H25.1674V14.9567C25.1674 15.7876 25.3485 16.5263 25.7108 17.1726C26.0801 17.8189 26.5985 18.3267 27.2662 18.696C27.9338 19.0653 28.7115 19.25 29.5993 19.25C30.4941 19.25 31.2718 19.0653 31.9324 18.696C32.6 18.3267 33.1149 17.8189 33.4771 17.1726C33.8464 16.5263 34.0311 15.7876 34.0311 14.9567V1.18182ZM42.4393 23V1.18182H51.0472C52.7021 1.18182 54.1119 1.49787 55.2766 2.12997C56.4414 2.75497 57.3292 3.625 57.94 4.74006C58.5579 5.84801 58.8668 7.12642 58.8668 8.57528C58.8668 10.0241 58.5543 11.3026 57.9293 12.4105C57.3043 13.5185 56.3988 14.3814 55.2127 14.9993C54.0337 15.6172 52.6062 15.9261 50.93 15.9261H45.4435V12.2294H50.1843C51.0721 12.2294 51.8036 12.0767 52.3789 11.7713C52.9613 11.4588 53.3945 11.0291 53.6786 10.4822C53.9698 9.92827 54.1154 9.29261 54.1154 8.57528C54.1154 7.85085 53.9698 7.21875 53.6786 6.67898C53.3945 6.1321 52.9613 5.70952 52.3789 5.41122C51.7965 5.10582 51.0579 4.95312 50.163 4.95312H47.0522V23H42.4393ZM61.8631 23V1.18182H76.5648V4.98508H66.476V10.1839H75.8084V13.9872H66.476V19.1967H76.6074V23H61.8631ZM80.2322 23V1.18182H88.8402C90.4879 1.18182 91.8942 1.47656 93.0589 2.06605C94.2308 2.64844 95.1222 3.47585 95.733 4.5483C96.3509 5.61364 96.6598 6.86719 96.6598 8.30895C96.6598 9.75781 96.3473 11.0043 95.7223 12.0483C95.0973 13.0852 94.1918 13.8807 93.0057 14.4347C91.8267 14.9886 90.3991 15.2656 88.723 15.2656H82.9595V11.5582H87.9773C88.858 11.5582 89.5895 11.4375 90.1719 11.196C90.7543 10.9545 91.1875 10.5923 91.4716 10.1094C91.7628 9.62642 91.9084 9.02628 91.9084 8.30895C91.9084 7.58452 91.7628 6.97372 91.4716 6.47656C91.1875 5.9794 90.7507 5.60298 90.1612 5.3473C89.5788 5.08452 88.8438 4.95312 87.956 4.95312H84.8452V23H80.2322ZM92.0149 13.071L97.4375 23H92.3452L87.0398 13.071H92.0149ZM104.533 1.18182V23H99.9197V1.18182H104.533ZM128.378 12.0909C128.378 14.4702 127.927 16.4943 127.025 18.1634C126.13 19.8324 124.908 21.1072 123.36 21.9879C121.819 22.8615 120.086 23.2983 118.161 23.2983C116.222 23.2983 114.482 22.858 112.941 21.9773C111.4 21.0966 110.182 19.8217 109.287 18.1527C108.392 16.4837 107.944 14.4631 107.944 12.0909C107.944 9.71165 108.392 7.6875 109.287 6.01847C110.182 4.34943 111.4 3.07812 112.941 2.20455C114.482 1.32386 116.222 0.883522 118.161 0.883522C120.086 0.883522 121.819 1.32386 123.36 2.20455C124.908 3.07812 126.13 4.34943 127.025 6.01847C127.927 7.6875 128.378 9.71165 128.378 12.0909ZM123.701 12.0909C123.701 10.5497 123.47 9.25 123.008 8.19176C122.554 7.13352 121.911 6.33097 121.08 5.78409C120.249 5.23722 119.276 4.96378 118.161 4.96378C117.046 4.96378 116.073 5.23722 115.242 5.78409C114.411 6.33097 113.765 7.13352 113.303 8.19176C112.849 9.25 112.621 10.5497 112.621 12.0909C112.621 13.6321 112.849 14.9318 113.303 15.9901C113.765 17.0483 114.411 17.8509 115.242 18.3977C116.073 18.9446 117.046 19.218 118.161 19.218C119.276 19.218 120.249 18.9446 121.08 18.3977C121.911 17.8509 122.554 17.0483 123.008 15.9901C123.47 14.9318 123.701 13.6321 123.701 12.0909ZM131.795 23V1.18182H140.403C142.05 1.18182 143.457 1.47656 144.621 2.06605C145.793 2.64844 146.685 3.47585 147.295 4.5483C147.913 5.61364 148.222 6.86719 148.222 8.30895C148.222 9.75781 147.91 11.0043 147.285 12.0483C146.66 13.0852 145.754 13.8807 144.568 14.4347C143.389 14.9886 141.962 15.2656 140.286 15.2656H134.522V11.5582H139.54C140.42 11.5582 141.152 11.4375 141.734 11.196C142.317 10.9545 142.75 10.5923 143.034 10.1094C143.325 9.62642 143.471 9.02628 143.471 8.30895C143.471 7.58452 143.325 6.97372 143.034 6.47656C142.75 5.9794 142.313 5.60298 141.724 5.3473C141.141 5.08452 140.406 4.95312 139.518 4.95312H136.408V23H131.795ZM143.577 13.071L149 23H143.908L138.602 13.071H143.577ZM3.10866 88V40.7273H21.7592C25.3447 40.7273 28.3993 41.412 30.9229 42.7816C33.4466 44.1358 35.3701 46.0208 36.6935 48.4368C38.0323 50.8374 38.7017 53.6072 38.7017 56.7464C38.7017 59.8857 38.0246 62.6555 36.6705 65.0561C35.3163 67.4567 33.3543 69.3263 30.7844 70.6651C28.23 72.0039 25.137 72.6733 21.5053 72.6733H9.6179V64.6637H19.8896C21.8131 64.6637 23.3981 64.3329 24.6445 63.6712C25.9064 62.9941 26.8451 62.0631 27.4606 60.8782C28.0915 59.6779 28.407 58.3007 28.407 56.7464C28.407 55.1768 28.0915 53.8073 27.4606 52.6378C26.8451 51.4529 25.9064 50.5373 24.6445 49.891C23.3827 49.2293 21.7823 48.8984 19.8434 48.8984H13.1033V88H3.10866ZM47.8827 88H37.1725L53.4917 40.7273H66.3717L82.6679 88H71.9577L60.1164 51.5298H59.7471L47.8827 88ZM47.2133 69.4187H72.5116V77.2205H47.2133V69.4187ZM127.846 57.2773H117.736C117.551 55.9693 117.174 54.8075 116.605 53.7919C116.035 52.7609 115.304 51.8838 114.412 51.1605C113.519 50.4373 112.488 49.8833 111.319 49.4986C110.165 49.1139 108.911 48.9215 107.556 48.9215C105.11 48.9215 102.978 49.5294 101.163 50.745C99.3468 51.9453 97.9388 53.6996 96.9386 56.0078C95.9383 58.3007 95.4382 61.0859 95.4382 64.3636C95.4382 67.7337 95.9383 70.5651 96.9386 72.858C97.9542 75.1508 99.3699 76.882 101.186 78.0515C103.002 79.221 105.102 79.8058 107.487 79.8058C108.826 79.8058 110.065 79.6288 111.203 79.2749C112.358 78.9209 113.381 78.4054 114.273 77.7283C115.166 77.0359 115.905 76.1972 116.489 75.2124C117.089 74.2275 117.505 73.1042 117.736 71.8423L127.846 71.8885C127.584 74.0582 126.93 76.151 125.884 78.1669C124.853 80.1674 123.46 81.9601 121.706 83.5451C119.967 85.1147 117.89 86.3612 115.474 87.2844C113.073 88.1924 110.357 88.6463 107.326 88.6463C103.109 88.6463 99.3391 87.6922 96.0153 85.7841C92.7068 83.8759 90.0908 81.1138 88.1673 77.4975C86.2591 73.8813 85.305 69.5033 85.305 64.3636C85.305 59.2086 86.2745 54.8229 88.2134 51.2067C90.1523 47.5904 92.7837 44.8359 96.1076 42.9432C99.4315 41.035 103.171 40.081 107.326 40.081C110.065 40.081 112.604 40.4657 114.943 41.2351C117.297 42.0045 119.382 43.1278 121.198 44.6051C123.014 46.067 124.491 47.8597 125.63 49.9833C126.784 52.1069 127.523 54.5382 127.846 57.2773ZM135.013 88V40.7273H145.008V61.5707H145.631L162.643 40.7273H174.622L157.08 61.8938L174.83 88H162.873L149.924 68.5646L145.008 74.5661V88H135.013ZM187.975 88H177.265L193.585 40.7273H206.464L222.761 88H212.05L200.209 51.5298H199.84L187.975 88ZM187.306 69.4187H212.604V77.2205H187.306V69.4187ZM257.575 56.0078C257.252 54.8845 256.798 53.8919 256.213 53.0302C255.628 52.1531 254.912 51.4144 254.066 50.8143C253.235 50.1987 252.281 49.7294 251.204 49.4062C250.142 49.0831 248.965 48.9215 247.672 48.9215C245.256 48.9215 243.133 49.5217 241.302 50.7219C239.486 51.9222 238.07 53.6688 237.054 55.9616C236.039 58.2391 235.531 61.0244 235.531 64.3175C235.531 67.6106 236.031 70.4112 237.031 72.7195C238.032 75.0277 239.447 76.7897 241.278 78.0053C243.11 79.2056 245.272 79.8058 247.765 79.8058C250.027 79.8058 251.958 79.4057 253.558 78.6055C255.174 77.7899 256.405 76.6435 257.252 75.1662C258.113 73.6889 258.544 71.9424 258.544 69.9265L260.575 70.2266H248.388V62.7017H268.169V68.657C268.169 72.8118 267.292 76.3819 265.538 79.3672C263.784 82.3371 261.368 84.63 258.29 86.2457C255.213 87.8461 251.689 88.6463 247.718 88.6463C243.287 88.6463 239.393 87.6692 236.039 85.7148C232.684 83.7451 230.068 80.9522 228.191 77.3359C226.329 73.7043 225.398 69.3956 225.398 64.4098C225.398 60.5781 225.952 57.1619 227.06 54.1612C228.183 51.1451 229.753 48.5907 231.769 46.4979C233.784 44.4051 236.131 42.8124 238.809 41.7198C241.486 40.6272 244.387 40.081 247.511 40.081C250.188 40.081 252.681 40.4734 254.989 41.2582C257.298 42.0276 259.344 43.1201 261.129 44.5359C262.93 45.9516 264.399 47.6366 265.538 49.5909C266.677 51.5298 267.408 53.6688 267.731 56.0078H257.575ZM285.672 40.7273V88H275.677V40.7273H285.672ZM333.435 40.7273V88H324.802L304.236 58.2468H303.889V88H293.895V40.7273H302.666L323.071 70.4574H323.486V40.7273H333.435ZM373.039 56.0078C372.715 54.8845 372.261 53.8919 371.677 53.0302C371.092 52.1531 370.376 51.4144 369.53 50.8143C368.699 50.1987 367.745 49.7294 366.668 49.4062C365.606 49.0831 364.429 48.9215 363.136 48.9215C360.72 48.9215 358.597 49.5217 356.765 50.7219C354.95 51.9222 353.534 53.6688 352.518 55.9616C351.503 58.2391 350.995 61.0244 350.995 64.3175C350.995 67.6106 351.495 70.4112 352.495 72.7195C353.495 75.0277 354.911 76.7897 356.742 78.0053C358.574 79.2056 360.736 79.8058 363.229 79.8058C365.491 79.8058 367.422 79.4057 369.022 78.6055C370.638 77.7899 371.869 76.6435 372.715 75.1662C373.577 73.6889 374.008 71.9424 374.008 69.9265L376.039 70.2266H363.852V62.7017H383.633V68.657C383.633 72.8118 382.756 76.3819 381.002 79.3672C379.248 82.3371 376.832 84.63 373.754 86.2457C370.676 87.8461 367.153 88.6463 363.182 88.6463C358.751 88.6463 354.857 87.6692 351.503 85.7148C348.148 83.7451 345.532 80.9522 343.655 77.3359C341.793 73.7043 340.862 69.3956 340.862 64.4098C340.862 60.5781 341.416 57.1619 342.524 54.1612C343.647 51.1451 345.217 48.5907 347.232 46.4979C349.248 44.4051 351.595 42.8124 354.273 41.7198C356.95 40.6272 359.851 40.081 362.975 40.081C365.652 40.081 368.145 40.4734 370.453 41.2582C372.762 42.0276 374.808 43.1201 376.593 44.5359C378.394 45.9516 379.863 47.6366 381.002 49.5909C382.141 51.5298 382.872 53.6688 383.195 56.0078H373.039ZM403.972 88V66.1818H418.419V69.9851H408.585V75.1839H417.46V78.9872H408.585V88H403.972ZM441.571 77.0909C441.571 79.4702 441.12 81.4943 440.218 83.1634C439.323 84.8324 438.102 86.1072 436.553 86.9879C435.012 87.8615 433.279 88.2983 431.354 88.2983C429.415 88.2983 427.675 87.858 426.134 86.9773C424.593 86.0966 423.375 84.8217 422.48 83.1527C421.585 81.4837 421.138 79.4631 421.138 77.0909C421.138 74.7116 421.585 72.6875 422.48 71.0185C423.375 69.3494 424.593 68.0781 426.134 67.2045C427.675 66.3239 429.415 65.8835 431.354 65.8835C433.279 65.8835 435.012 66.3239 436.553 67.2045C438.102 68.0781 439.323 69.3494 440.218 71.0185C441.12 72.6875 441.571 74.7116 441.571 77.0909ZM436.894 77.0909C436.894 75.5497 436.663 74.25 436.202 73.1918C435.747 72.1335 435.104 71.331 434.273 70.7841C433.442 70.2372 432.469 69.9638 431.354 69.9638C430.239 69.9638 429.266 70.2372 428.435 70.7841C427.604 71.331 426.958 72.1335 426.496 73.1918C426.042 74.25 425.815 75.5497 425.815 77.0909C425.815 78.6321 426.042 79.9318 426.496 80.9901C426.958 82.0483 427.604 82.8509 428.435 83.3977C429.266 83.9446 430.239 84.218 431.354 84.218C432.469 84.218 433.442 83.9446 434.273 83.3977C435.104 82.8509 435.747 82.0483 436.202 80.9901C436.663 79.9318 436.894 78.6321 436.894 77.0909ZM444.988 88V66.1818H453.596C455.244 66.1818 456.65 66.4766 457.815 67.0661C458.987 67.6484 459.878 68.4759 460.489 69.5483C461.107 70.6136 461.416 71.8672 461.416 73.3089C461.416 74.7578 461.103 76.0043 460.478 77.0483C459.853 78.0852 458.948 78.8807 457.762 79.4347C456.583 79.9886 455.155 80.2656 453.479 80.2656H447.715V76.5582H452.733C453.614 76.5582 454.345 76.4375 454.928 76.196C455.51 75.9545 455.943 75.5923 456.227 75.1094C456.519 74.6264 456.664 74.0263 456.664 73.3089C456.664 72.5845 456.519 71.9737 456.227 71.4766C455.943 70.9794 455.507 70.603 454.917 70.3473C454.335 70.0845 453.6 69.9531 452.712 69.9531H449.601V88H444.988ZM456.771 78.071L462.193 88H457.101L451.796 78.071H456.771ZM93.3723 153V105.727H112.023C115.608 105.727 118.663 106.412 121.187 107.782C123.71 109.136 125.634 111.021 126.957 113.437C128.296 115.837 128.965 118.607 128.965 121.746C128.965 124.886 128.288 127.656 126.934 130.056C125.58 132.457 123.618 134.326 121.048 135.665C118.494 137.004 115.401 137.673 111.769 137.673H99.8816V129.664H110.153C112.077 129.664 113.662 129.333 114.908 128.671C116.17 127.994 117.109 127.063 117.724 125.878C118.355 124.678 118.671 123.301 118.671 121.746C118.671 120.177 118.355 118.807 117.724 117.638C117.109 116.453 116.17 115.537 114.908 114.891C113.646 114.229 112.046 113.898 110.107 113.898H103.367V153H93.3723ZM135.457 153V105.727H154.108C157.678 105.727 160.725 106.366 163.248 107.643C165.788 108.905 167.719 110.698 169.042 113.021C170.381 115.33 171.05 118.046 171.05 121.169C171.05 124.309 170.373 127.009 169.019 129.271C167.665 131.518 165.703 133.241 163.133 134.442C160.579 135.642 157.486 136.242 153.854 136.242H141.366V128.21H152.238C154.146 128.21 155.731 127.948 156.993 127.425C158.255 126.902 159.194 126.117 159.809 125.07C160.44 124.024 160.756 122.724 160.756 121.169C160.756 119.6 160.44 118.276 159.809 117.199C159.194 116.122 158.247 115.306 156.97 114.752C155.708 114.183 154.116 113.898 152.192 113.898H145.452V153H135.457ZM160.986 131.487L172.735 153H161.702L150.207 131.487H160.986ZM178.114 153V105.727H209.967V113.968H188.108V125.232H208.328V133.472H188.108V144.76H210.06V153H178.114ZM217.913 105.727H230.239L243.258 137.489H243.812L256.83 105.727H269.156V153H259.462V122.231H259.069L246.836 152.769H240.234L228 122.116H227.608V153H217.913V105.727ZM287.386 105.727V153H277.391V105.727H287.386ZM324.808 105.727H334.803V136.427C334.803 139.874 333.979 142.89 332.333 145.475C330.702 148.06 328.416 150.076 325.477 151.523C322.538 152.954 319.114 153.669 315.206 153.669C311.282 153.669 307.85 152.954 304.911 151.523C301.972 150.076 299.687 148.06 298.055 145.475C296.424 142.89 295.609 139.874 295.609 136.427V105.727H305.603V135.573C305.603 137.373 305.996 138.974 306.781 140.374C307.581 141.774 308.704 142.875 310.151 143.675C311.597 144.475 313.282 144.875 315.206 144.875C317.145 144.875 318.83 144.475 320.261 143.675C321.707 142.875 322.823 141.774 323.608 140.374C324.408 138.974 324.808 137.373 324.808 135.573V105.727ZM343.026 105.727H355.352L368.37 137.489H368.924L381.943 105.727H394.269V153H384.574V122.231H384.182L371.948 152.769H365.346L353.113 122.116H352.72V153H343.026V105.727ZM306.404 183V161.182H315.012C316.667 161.182 318.077 161.498 319.241 162.13C320.406 162.755 321.294 163.625 321.905 164.74C322.523 165.848 322.832 167.126 322.832 168.575C322.832 170.024 322.519 171.303 321.894 172.411C321.269 173.518 320.364 174.381 319.178 174.999C317.999 175.617 316.571 175.926 314.895 175.926H309.408V172.229H314.149C315.037 172.229 315.768 172.077 316.344 171.771C316.926 171.459 317.359 171.029 317.643 170.482C317.935 169.928 318.08 169.293 318.08 168.575C318.08 167.851 317.935 167.219 317.643 166.679C317.359 166.132 316.926 165.71 316.344 165.411C315.761 165.106 315.023 164.953 314.128 164.953H311.017V183H306.404ZM325.828 183V161.182H334.436C336.084 161.182 337.49 161.477 338.655 162.066C339.827 162.648 340.718 163.476 341.329 164.548C341.947 165.614 342.256 166.867 342.256 168.309C342.256 169.758 341.943 171.004 341.318 172.048C340.693 173.085 339.787 173.881 338.601 174.435C337.422 174.989 335.995 175.266 334.319 175.266H328.555V171.558H333.573C334.454 171.558 335.185 171.437 335.768 171.196C336.35 170.955 336.783 170.592 337.067 170.109C337.358 169.626 337.504 169.026 337.504 168.309C337.504 167.585 337.358 166.974 337.067 166.477C336.783 165.979 336.346 165.603 335.757 165.347C335.175 165.085 334.439 164.953 333.552 164.953H330.441V183H325.828ZM337.611 173.071L343.033 183H337.941L332.635 173.071H337.611ZM365.565 172.091C365.565 174.47 365.114 176.494 364.212 178.163C363.317 179.832 362.096 181.107 360.547 181.988C359.006 182.862 357.273 183.298 355.349 183.298C353.41 183.298 351.67 182.858 350.128 181.977C348.587 181.097 347.369 179.822 346.474 178.153C345.579 176.484 345.132 174.463 345.132 172.091C345.132 169.712 345.579 167.688 346.474 166.018C347.369 164.349 348.587 163.078 350.128 162.205C351.67 161.324 353.41 160.884 355.349 160.884C357.273 160.884 359.006 161.324 360.547 162.205C362.096 163.078 363.317 164.349 364.212 166.018C365.114 167.688 365.565 169.712 365.565 172.091ZM360.888 172.091C360.888 170.55 360.657 169.25 360.196 168.192C359.741 167.134 359.099 166.331 358.268 165.784C357.437 165.237 356.464 164.964 355.349 164.964C354.233 164.964 353.26 165.237 352.43 165.784C351.599 166.331 350.952 167.134 350.491 168.192C350.036 169.25 349.809 170.55 349.809 172.091C349.809 173.632 350.036 174.932 350.491 175.99C350.952 177.048 351.599 177.851 352.43 178.398C353.26 178.945 354.233 179.218 355.349 179.218C356.464 179.218 357.437 178.945 358.268 178.398C359.099 177.851 359.741 177.048 360.196 175.99C360.657 174.932 360.888 173.632 360.888 172.091ZM376.717 183H368.982V161.182H376.781C378.975 161.182 380.864 161.619 382.448 162.492C384.032 163.359 385.25 164.605 386.102 166.232C386.962 167.858 387.391 169.804 387.391 172.07C387.391 174.342 386.962 176.295 386.102 177.929C385.25 179.562 384.025 180.816 382.427 181.69C380.836 182.563 378.933 183 376.717 183ZM373.595 179.048H376.525C377.888 179.048 379.036 178.806 379.966 178.323C380.903 177.833 381.607 177.077 382.075 176.054C382.551 175.024 382.789 173.696 382.789 172.07C382.789 170.457 382.551 169.14 382.075 168.117C381.607 167.094 380.907 166.342 379.977 165.859C379.046 165.376 377.899 165.134 376.536 165.134H373.595V179.048ZM404.285 161.182H408.898V175.351C408.898 176.942 408.518 178.334 407.758 179.527C407.005 180.72 405.95 181.651 404.594 182.318C403.237 182.979 401.657 183.309 399.853 183.309C398.042 183.309 396.458 182.979 395.102 182.318C393.745 181.651 392.691 180.72 391.938 179.527C391.185 178.334 390.808 176.942 390.808 175.351V161.182H395.421V174.957C395.421 175.788 395.602 176.526 395.965 177.173C396.334 177.819 396.852 178.327 397.52 178.696C398.188 179.065 398.965 179.25 399.853 179.25C400.748 179.25 401.526 179.065 402.186 178.696C402.854 178.327 403.369 177.819 403.731 177.173C404.1 176.526 404.285 175.788 404.285 174.957V161.182ZM431.944 168.82H427.278C427.192 168.217 427.018 167.68 426.756 167.212C426.493 166.736 426.156 166.331 425.744 165.997C425.332 165.663 424.856 165.408 424.316 165.23C423.783 165.053 423.205 164.964 422.58 164.964C421.45 164.964 420.467 165.244 419.629 165.805C418.79 166.359 418.141 167.169 417.679 168.234C417.217 169.293 416.987 170.578 416.987 172.091C416.987 173.646 417.217 174.953 417.679 176.011C418.148 177.07 418.801 177.869 419.639 178.408C420.477 178.948 421.447 179.218 422.548 179.218C423.165 179.218 423.737 179.136 424.263 178.973C424.795 178.81 425.268 178.572 425.68 178.259C426.092 177.94 426.433 177.553 426.702 177.098C426.979 176.643 427.171 176.125 427.278 175.543L431.944 175.564C431.823 176.565 431.521 177.531 431.038 178.462C430.563 179.385 429.92 180.212 429.11 180.944C428.308 181.668 427.349 182.244 426.234 182.67C425.126 183.089 423.872 183.298 422.473 183.298C420.527 183.298 418.787 182.858 417.253 181.977C415.726 181.097 414.518 179.822 413.631 178.153C412.75 176.484 412.31 174.463 412.31 172.091C412.31 169.712 412.757 167.688 413.652 166.018C414.547 164.349 415.761 163.078 417.295 162.205C418.83 161.324 420.555 160.884 422.473 160.884C423.737 160.884 424.909 161.061 425.989 161.416C427.075 161.771 428.038 162.29 428.876 162.972C429.714 163.646 430.396 164.474 430.921 165.454C431.454 166.434 431.795 167.556 431.944 168.82ZM434.421 164.985V161.182H452.34V164.985H445.66V183H441.1V164.985H434.421ZM467.127 167.457C467.042 166.597 466.676 165.93 466.029 165.454C465.383 164.978 464.506 164.74 463.398 164.74C462.645 164.74 462.01 164.847 461.491 165.06C460.973 165.266 460.575 165.553 460.298 165.923C460.028 166.292 459.893 166.711 459.893 167.18C459.879 167.57 459.961 167.911 460.138 168.202C460.323 168.494 460.575 168.746 460.895 168.959C461.214 169.165 461.583 169.346 462.002 169.502C462.422 169.651 462.869 169.779 463.345 169.886L465.305 170.354C466.257 170.567 467.13 170.852 467.926 171.207C468.721 171.562 469.41 171.999 469.993 172.517C470.575 173.036 471.026 173.646 471.346 174.349C471.672 175.053 471.839 175.859 471.846 176.768C471.839 178.103 471.498 179.261 470.824 180.241C470.156 181.214 469.19 181.97 467.926 182.51C466.669 183.043 465.152 183.309 463.377 183.309C461.615 183.309 460.081 183.039 458.775 182.499C457.475 181.96 456.459 181.161 455.728 180.102C455.003 179.037 454.623 177.719 454.588 176.15H459.051C459.101 176.881 459.311 177.492 459.68 177.982C460.056 178.465 460.557 178.831 461.182 179.08C461.814 179.321 462.528 179.442 463.324 179.442C464.105 179.442 464.783 179.328 465.358 179.101C465.941 178.874 466.392 178.558 466.711 178.153C467.031 177.748 467.191 177.283 467.191 176.757C467.191 176.267 467.045 175.855 466.754 175.521C466.47 175.187 466.051 174.903 465.497 174.669C464.95 174.435 464.279 174.222 463.483 174.03L461.108 173.433C459.268 172.986 457.816 172.286 456.75 171.335C455.685 170.383 455.156 169.101 455.163 167.489C455.156 166.168 455.507 165.013 456.218 164.026C456.935 163.039 457.919 162.268 459.169 161.714C460.419 161.161 461.839 160.884 463.43 160.884C465.049 160.884 466.463 161.161 467.67 161.714C468.885 162.268 469.829 163.039 470.504 164.026C471.179 165.013 471.527 166.157 471.548 167.457H467.127Z" fill="#434E24"/>
</svg>
