<svg width="89" height="61" viewBox="0 0 89 61" fill="none" xmlns="http://www.w3.org/2000/svg">
<path d="M56.6942 21.1409C56.7945 20.9788 56.7617 20.8147 56.7617 20.6588C56.7638 19.251 56.7638 17.8412 56.7638 16.4334C56.7638 16.2228 56.7658 16.0121 56.7617 15.8015C56.7515 15.3801 56.5571 15.0601 56.2092 14.8292C56.1274 14.7745 56.0414 14.7279 55.9575 14.6793C52.4316 12.6679 48.9058 10.6565 45.3799 8.64512C45.2387 8.5641 45.0955 8.47903 44.942 8.43041C44.6187 8.32711 44.2953 8.34737 43.9925 8.51346C43.7346 8.65323 43.4809 8.80109 43.2251 8.94693C39.9816 10.7963 36.7402 12.6476 33.4967 14.497C33.2409 14.6428 32.9851 14.7725 32.6925 14.8434C31.61 15.1026 30.3003 14.3268 30.2737 12.9474C30.2512 11.7665 30.2369 10.5816 30.2778 9.40269C30.3187 8.23596 30.8856 7.33863 31.8944 6.73096C32.5083 6.36231 33.1386 6.01594 33.7607 5.66146C36.7484 3.95796 39.7381 2.25648 42.7258 0.550951C43.0818 0.348394 43.4461 0.174195 43.8492 0.0850704C44.6146 -0.0871029 45.341 0.0182267 46.0409 0.356497C46.1432 0.40511 46.2435 0.461826 46.3417 0.518542C49.9249 2.56234 53.5039 4.61019 57.0891 6.64791C57.7951 7.04898 58.3272 7.59385 58.628 8.34737C58.7917 8.75653 58.8613 9.18595 58.8613 9.62955C58.8572 11.8475 58.8592 14.0655 58.8592 16.2835C58.8592 20.6061 58.8613 24.9287 58.8572 29.2533C58.8572 29.5267 58.8408 29.8042 58.7938 30.0736C58.6239 31.0398 58.0939 31.769 57.2569 32.2795C56.8395 32.5327 56.4097 32.7656 55.9841 33.0087C52.7836 34.8337 49.5831 36.6567 46.3847 38.4858C45.8362 38.7998 45.2653 39.0104 44.6268 39.0226C43.9884 39.0327 43.4031 38.8626 42.8527 38.5466C41.5798 37.8174 40.3029 37.0942 39.0301 36.3671C36.7361 35.0585 34.4421 33.748 32.1502 32.4395C32.009 32.3585 31.8637 32.2835 31.7287 32.1903C30.8078 31.5563 30.2942 30.6793 30.2778 29.5713C30.2512 27.7908 30.2492 26.0083 30.2778 24.2278C30.2962 23.1401 30.7976 22.2731 31.6939 21.6391C31.8126 21.5541 31.9415 21.4832 32.0684 21.4103C35.6372 19.3746 39.2061 17.3389 42.7729 15.3032C43.1289 15.1006 43.4973 14.9386 43.9024 14.8535C44.6719 14.6894 45.3963 14.811 46.0879 15.1614C46.3499 15.293 46.6016 15.447 46.8553 15.5908C49.9556 17.3591 53.0578 19.1295 56.1601 20.8958C56.3238 20.9869 56.4793 21.1125 56.6942 21.1409ZM32.406 12.6395C32.6291 12.6416 32.7682 12.516 32.9176 12.4289C35.4387 10.9948 37.9598 9.55663 40.4789 8.11848C41.2995 7.65057 42.1139 7.16848 42.9447 6.71678C44.015 6.13747 45.0996 6.1476 46.178 6.71071C46.2783 6.76337 46.3765 6.82211 46.4767 6.87883C48.9549 8.29268 51.433 9.7045 53.9091 11.1183C54.7297 11.5862 55.5503 12.0582 56.3729 12.5221C56.4773 12.5808 56.5796 12.6963 56.7208 12.6011C56.731 12.5828 56.7474 12.5687 56.7474 12.5545C56.7515 11.5194 56.7617 10.4843 56.7556 9.44725C56.7535 9.08467 56.5694 8.79704 56.2767 8.58638C56.1314 8.48308 55.9718 8.398 55.8163 8.30888C52.3621 6.338 48.9078 4.36712 45.4536 2.39624C45.3267 2.32332 45.1998 2.2504 45.0668 2.18761C44.7373 2.03569 44.4017 2.03367 44.0723 2.18559C43.9106 2.26053 43.7551 2.35168 43.5996 2.44081C41.0519 3.89314 38.5021 5.3475 35.9544 6.80186C34.9926 7.35079 34.0308 7.90377 33.065 8.44662C32.5963 8.70994 32.3569 9.08872 32.3651 9.63158C32.3774 10.5208 32.3671 11.4121 32.3692 12.3033C32.3651 12.4147 32.3897 12.52 32.406 12.6395ZM56.7413 26.3729C56.4916 26.3871 56.3525 26.5086 56.201 26.5937C53.6799 28.0298 51.1609 29.4659 48.6397 30.9041C47.8192 31.372 47.0047 31.8541 46.1739 32.3038C45.1036 32.8831 44.0191 32.873 42.9427 32.3058C42.8568 32.2612 42.7729 32.2106 42.6869 32.162C40.8616 31.1208 39.0342 30.0777 37.2088 29.0365C35.7641 28.2121 34.3194 27.3897 32.8746 26.5694C32.7375 26.4904 32.6127 26.3729 32.4265 26.3871C32.406 26.4357 32.3712 26.4782 32.3712 26.5187C32.3671 27.5376 32.359 28.5585 32.3712 29.5774C32.3753 29.9582 32.5779 30.2539 32.8951 30.4645C33.0568 30.5719 33.2307 30.6651 33.4006 30.7623C36.7136 32.6522 40.0266 34.542 43.3397 36.4299C43.5525 36.5514 43.7633 36.6729 43.9782 36.7924C44.2155 36.9241 44.4754 36.9788 44.7353 36.92C44.9379 36.8755 45.1384 36.7904 45.3206 36.6911C45.9488 36.3448 46.5688 35.9842 47.1909 35.6277C50.1213 33.9566 53.0476 32.2795 55.9841 30.6165C56.5243 30.3106 56.7842 29.8994 56.7658 29.2776C56.7433 28.4532 56.7617 27.6267 56.7597 26.8003C56.7597 26.6747 56.7494 26.5471 56.7413 26.3729ZM35.5738 25.6802C35.7232 25.6012 35.8664 25.5282 36.0076 25.4472C37.3255 24.6978 38.6413 23.9463 39.9571 23.1948C40.9332 22.6378 41.9093 22.0787 42.8874 21.5237C43.3929 21.2361 43.9331 21.0801 44.5204 21.074C45.1609 21.0659 45.7421 21.2401 46.2926 21.5561C47.4795 22.2387 48.6704 22.9132 49.8594 23.5918C50.9644 24.2217 52.0674 24.8517 53.1724 25.4796C53.5715 25.7065 53.5346 25.7186 53.9234 25.4979C54.6458 25.0867 55.3702 24.6775 56.0885 24.2602C56.2276 24.1792 56.3565 24.0739 56.4691 23.9604C56.6144 23.8146 56.6164 23.6809 56.4609 23.5391C56.3054 23.3994 56.1314 23.2758 55.9493 23.1725C52.4275 21.1591 48.9017 19.1477 45.3779 17.1383C45.2796 17.0816 45.1814 17.0229 45.077 16.9743C44.7292 16.8142 44.3813 16.8163 44.0375 16.9803C43.9045 17.0431 43.7797 17.1181 43.6507 17.191C41.1173 18.6373 38.584 20.0815 36.0506 21.5277C35.0745 22.0848 34.0963 22.6398 33.1222 23.2009C32.9688 23.29 32.8194 23.3933 32.6884 23.5128C32.5104 23.6748 32.5042 23.8146 32.668 23.9706C32.7948 24.0921 32.9422 24.2015 33.0956 24.2906C33.7996 24.6998 34.5097 25.1008 35.2177 25.5039C35.3262 25.5667 35.4449 25.6174 35.5738 25.6802ZM51.4126 26.9036C51.2141 26.774 51.0995 26.6909 50.9746 26.62C49.094 25.5465 47.2093 24.479 45.3349 23.3953C44.7967 23.0854 44.2974 23.0854 43.7715 23.4075C43.2865 23.7052 42.7831 23.9767 42.2879 24.2582C40.9311 25.032 39.5724 25.8057 38.2156 26.5836C38.0662 26.6686 37.8903 26.7274 37.7797 26.9016C37.8923 27.0677 38.0642 27.1284 38.2156 27.2155C40.0532 28.2668 41.8929 29.314 43.7305 30.3633C43.8022 30.4038 43.8697 30.4463 43.9434 30.4848C44.3465 30.6995 44.7537 30.7056 45.1609 30.4949C45.2326 30.4585 45.3042 30.4159 45.3738 30.3754C47.2257 29.3181 49.0797 28.2607 50.9317 27.2034C51.0688 27.1244 51.2018 27.0353 51.4126 26.9036Z" fill="#434E24"/>
<path d="M50.7291 58.0305C50.9603 58.3303 51.2427 58.5713 51.5149 58.8225C51.7891 59.0777 52.0674 59.3289 52.358 59.5639C52.6465 59.7988 52.9535 60.0136 53.2481 60.2343C53.0906 60.68 52.7693 60.9251 52.27 60.9838C51.8177 61.0385 51.3819 60.9716 50.9992 60.7245C50.7148 60.5402 50.4365 60.3336 50.1929 60.0986C49.8778 59.7948 49.5954 59.4565 49.3028 59.1304C49.1616 58.9724 49.0224 58.8124 48.8915 58.6483C48.7769 58.5065 48.6418 58.466 48.4597 58.4923C47.0457 58.6949 45.6234 58.6949 44.2033 58.6321C43.2906 58.5916 42.38 58.4883 41.4898 58.2655C41.013 58.146 40.5526 57.9819 40.1147 57.7631C39.1426 57.279 38.4387 56.5458 37.9946 55.5614C37.6979 54.9051 37.5281 54.2164 37.4278 53.5095C37.2559 52.3022 37.262 51.0869 37.3398 49.8756C37.391 49.0998 37.5342 48.3361 37.79 47.5968C38.3507 45.9784 39.4578 44.9271 41.101 44.4167C41.7742 44.208 42.47 44.1068 43.1678 44.0298C44.4713 43.888 45.779 43.8819 47.0845 43.9366C48.0156 43.9771 48.9406 44.0784 49.8471 44.3053C50.3075 44.4207 50.7516 44.5828 51.1772 44.7894C52.2045 45.2897 52.931 46.0635 53.3791 47.1046C53.6983 47.8419 53.858 48.6157 53.9521 49.4036C54.0503 50.224 54.0769 51.0504 54.0442 51.8748C54.0073 52.764 53.9357 53.6533 53.6758 54.5121C53.5633 54.8828 53.4303 55.2494 53.2645 55.5998C52.8225 56.5397 52.1288 57.2507 51.1957 57.7287C51.0422 57.8057 50.8601 57.8502 50.7291 58.0305ZM44.8335 54.0867C44.8683 53.8356 45.03 53.7282 45.2121 53.6472C45.603 53.473 45.9856 53.5358 46.3417 53.7302C46.5545 53.8457 46.751 53.9976 46.9372 54.1536C47.5634 54.6762 48.1159 55.2717 48.6725 55.8652C48.7912 55.9928 48.8874 56.1528 49.0552 56.2156C49.0981 56.2055 49.1329 56.2055 49.1595 56.1913C49.2168 56.1589 49.27 56.1224 49.3212 56.084C49.7571 55.7437 50.0477 55.298 50.2543 54.7977C50.4733 54.2711 50.5879 53.7181 50.6657 53.155C50.7987 52.1888 50.7905 51.2165 50.7455 50.2463C50.7086 49.4867 50.6002 48.7332 50.3464 48.008C49.9351 46.823 49.1145 46.0837 47.8806 45.8143C46.4256 45.4963 44.9625 45.4963 43.5034 45.788C42.2019 46.0473 41.3609 46.8271 40.9516 48.0749C40.7838 48.5853 40.6815 49.1099 40.6262 49.6406C40.5096 50.7385 40.5096 51.8384 40.6283 52.9362C40.6917 53.5317 40.8063 54.1191 41.0191 54.6843C41.4386 55.8044 42.2367 56.4931 43.4113 56.7645C44.6044 57.04 45.8097 57.0137 47.0191 56.9144C47.0927 56.9084 47.1623 56.8557 47.2626 56.8132C47.0272 56.4465 46.7407 56.1589 46.4768 55.8571C46.2087 55.5512 45.9365 55.2514 45.6582 54.9537C45.3861 54.6559 45.1037 54.3663 44.8335 54.0867Z" fill="#434E24"/>
<path d="M34.2477 58.3951C34.1434 58.4214 34.0963 58.4437 34.0492 58.4437C33.3126 58.4458 32.5779 58.462 31.8433 58.4417C31.1373 58.4214 30.9122 58.1865 30.8774 57.4937C30.8651 57.2345 30.8733 56.9752 30.8733 56.7159C30.8713 55.9543 30.8774 55.1947 30.8651 54.4331C30.861 54.1941 30.8221 53.949 30.7669 53.7161C30.6809 53.3575 30.4415 53.1084 30.0834 53.0193C29.7539 52.9362 29.4102 52.8572 29.0725 52.8572C26.8665 52.8572 24.6585 52.8775 22.4526 52.8916C22.3421 52.8916 22.2316 52.9159 22.1272 52.9281C22.0167 53.1104 22.0576 53.2927 22.0556 53.4669C22.0515 54.9395 22.0556 56.4141 22.0515 57.8867C22.0515 58.0609 22.0904 58.2432 21.9819 58.3971C21.5849 58.462 19.3933 58.466 18.9144 58.4012C18.9001 58.3202 18.8796 58.229 18.8714 58.1379C18.8633 58.0406 18.8694 57.9434 18.8694 57.8462C18.8694 53.9267 18.8694 50.0093 18.8694 46.0898C18.8694 45.9115 18.8633 45.7333 18.8817 45.555C18.9001 45.3788 18.9328 45.2026 18.9799 45.0324C19.0781 44.682 19.3094 44.441 19.6532 44.3154C19.7739 44.2708 19.9028 44.2303 20.0297 44.2141C20.3366 44.1756 20.6477 44.1311 20.9567 44.129C23.9484 44.1209 26.9402 44.1169 29.932 44.123C30.5357 44.125 31.1414 44.1695 31.7328 44.3053C31.9067 44.3458 32.0807 44.3984 32.2485 44.4592C33.1018 44.7711 33.6707 45.3565 33.9428 46.2174C34.0554 46.5739 34.1311 46.9365 34.1495 47.3112C34.1884 48.0728 34.1904 48.8324 34.039 49.5839C33.9142 50.1997 33.6645 50.7547 33.2021 51.1983C32.9012 51.4879 32.5595 51.6945 32.1339 51.7431C32.0704 51.7512 32.007 51.7675 31.9456 51.7837C31.9333 51.7877 31.9292 51.81 31.9026 51.8546C32.0193 51.8728 32.1216 51.9011 32.2259 51.9052C32.5922 51.9194 32.936 52.0105 33.2634 52.1685C33.6052 52.3326 33.8364 52.5898 33.9449 52.9524C34.0697 53.3737 34.1536 53.8011 34.1516 54.2427C34.1475 55.0529 34.1475 55.8611 34.1536 56.6714C34.1536 57.2405 34.1086 57.8077 34.2477 58.3951ZM22.0781 51.2509C22.2909 51.2651 22.4505 51.2813 22.6101 51.2833C23.8502 51.2975 25.0903 51.3117 26.3324 51.3198C27.0671 51.3259 27.8017 51.3218 28.5364 51.3218C29.0582 51.3218 29.5309 51.1679 29.9668 50.8904C30.3392 50.6554 30.6032 50.3313 30.7342 49.9161C31.0186 49.0127 31.037 48.1032 30.7505 47.1978C30.5172 46.4605 29.9954 46.0432 29.2301 45.9379C28.8433 45.8832 28.4504 45.8325 28.0616 45.8305C26.4286 45.8204 24.7977 45.8285 23.1647 45.8346C23.003 45.8346 22.8373 45.8467 22.6777 45.8751C22.1886 45.9662 22.074 46.1019 22.0556 46.5861C22.0535 46.6509 22.0535 46.7157 22.0535 46.7805C22.0535 48.1052 22.0535 49.432 22.0535 50.7567C22.0535 50.9005 22.0678 51.0443 22.0781 51.2509Z" fill="#434E24"/>
<path d="M71.825 58.3992C71.4648 58.462 69.2875 58.4802 68.5488 58.4255C68.4076 58.3202 68.381 58.1521 68.3278 58.0042C67.9942 57.0907 67.6668 56.1771 67.3353 55.2636C67.2698 55.0833 67.192 54.9071 67.1122 54.7086C66.9301 54.7005 66.7684 54.6883 66.6088 54.6883C64.4499 54.6863 62.2931 54.6883 60.1342 54.6883C59.5857 54.6883 59.6185 54.6843 59.4445 55.1765C59.1212 56.0921 58.7979 57.0076 58.4725 57.9232C58.4132 58.0893 58.3456 58.2533 58.2883 58.4012C57.8607 58.464 56.3873 58.466 55.9555 58.4073C55.9043 58.2027 56.021 58.0325 56.0844 57.8563C56.6615 56.2561 57.2447 54.66 57.8259 53.0618C58.6117 50.9005 59.3995 48.7392 60.1812 46.578C60.3654 46.0716 60.5946 45.5935 60.9261 45.1641C61.319 44.6577 61.8142 44.3134 62.4506 44.1777C63.4247 43.969 64.3947 43.9569 65.3626 44.208C66.0072 44.3762 66.5065 44.7468 66.883 45.2877C67.1163 45.6219 67.2862 45.9885 67.4274 46.3713C68.5938 49.515 69.7622 52.6567 70.9287 55.7983C71.1947 56.5113 71.4607 57.2243 71.7206 57.9394C71.7779 58.0852 71.8741 58.229 71.825 58.3992ZM66.4472 53.396C66.5249 53.1651 66.4042 52.9929 66.3428 52.8147C65.7596 51.1173 65.1682 49.4219 64.5768 47.7265C64.5134 47.5442 64.4335 47.3659 64.3599 47.1877C64.2064 46.819 63.9117 46.6347 63.5229 46.6185C63.2978 46.6104 63.0686 46.6407 62.8456 46.6732C62.6041 46.7096 62.4261 46.8534 62.3156 47.0661C62.203 47.2808 62.0966 47.4996 62.0127 47.7265C61.851 48.166 61.7098 48.6137 61.5605 49.0593C61.1328 50.3313 60.701 51.6034 60.2794 52.8775C60.2262 53.0375 60.1075 53.1975 60.1996 53.3798C60.6396 53.4548 63.6641 53.4811 66.1259 53.4305C66.2343 53.4284 66.3448 53.4082 66.4472 53.396Z" fill="#434E24"/>
<path d="M89 58.4012C88.5539 58.462 86.1351 58.466 85.6317 58.4133C85.5846 58.3121 85.5253 58.1986 85.4823 58.0812C85.1324 57.1231 84.7845 56.1629 84.4346 55.2048C84.3793 55.0529 84.3179 54.9051 84.2709 54.7815C84.0785 54.6498 83.8923 54.6883 83.7163 54.6883C82.7034 54.6843 81.6884 54.6863 80.6754 54.6863C79.5642 54.6863 78.451 54.6863 77.3399 54.6863C76.6707 54.6863 76.7526 54.6539 76.5438 55.2312C76.2144 56.1447 75.8951 57.0623 75.5698 57.9779C75.5166 58.1277 75.4511 58.2736 75.3979 58.4032C74.8331 58.4741 73.4272 58.464 73.0671 58.387C73.0241 58.2189 73.1244 58.0771 73.1776 57.9313C73.6319 56.6673 74.0943 55.4034 74.5527 54.1414C75.4593 51.6459 76.3658 49.1484 77.2703 46.6529C77.4258 46.2255 77.6038 45.8103 77.8535 45.4254C78.3528 44.6557 79.0445 44.2121 79.9694 44.0966C80.6734 44.0095 81.3691 43.9994 82.069 44.1108C82.9817 44.2546 83.6836 44.7083 84.1419 45.5044C84.3036 45.7839 84.4428 46.0817 84.5553 46.3835C85.9857 50.224 87.4079 54.0645 88.8322 57.907C88.8895 58.0548 88.9345 58.2067 89 58.4012ZM83.614 53.3737C83.5976 53.161 83.528 52.999 83.4707 52.8329C82.9817 51.4272 82.4946 50.0214 82.0055 48.6157C81.8562 48.1883 81.7027 47.7629 81.5533 47.3355C81.365 46.8008 80.9721 46.582 80.4176 46.6104C80.2887 46.6164 80.1577 46.6306 80.0308 46.6549C79.7586 46.7056 79.5458 46.8474 79.419 47.0945C79.3166 47.295 79.2143 47.4996 79.1427 47.7123C78.5431 49.4725 77.9497 51.2347 77.3583 52.997C77.3194 53.1145 77.3071 53.2421 77.2785 53.3899C77.4258 53.4061 77.5363 53.4284 77.6468 53.4304C80.0308 53.4831 83.1331 53.4568 83.614 53.3737Z" fill="#434E24"/>
<path d="M15.9329 58.4316C14.7808 58.4316 13.6901 58.4316 12.5748 58.4316C12.5134 58.2938 12.448 58.1662 12.3989 58.0325C12.0653 57.119 11.7379 56.2055 11.4064 55.2919C11.3409 55.1096 11.2652 54.9334 11.2058 54.7815C11.0094 54.6519 10.8252 54.6904 10.6492 54.6904C9.17789 54.6863 7.70656 54.6883 6.23524 54.6883C5.56403 54.6883 4.89487 54.6863 4.22367 54.6883C4.06201 54.6883 3.90035 54.6985 3.76324 54.7045C3.59339 54.8301 3.56884 54.9962 3.51563 55.1461C3.18617 56.0779 2.85875 57.0096 2.52724 57.9394C2.4679 58.1055 2.39832 58.2655 2.33898 58.4113C1.74349 58.4741 0.356063 58.462 0.0020441 58.3911C-0.0184194 58.1743 0.0961763 57.988 0.165752 57.7955C1.31376 54.6276 2.46585 51.4636 3.61795 48.2977C3.83486 47.7042 4.04768 47.1107 4.26255 46.5152C4.44058 46.025 4.67182 45.5631 4.99719 45.1499C5.38191 44.6618 5.8628 44.3215 6.48284 44.1858C7.45486 43.971 8.42483 43.9548 9.3948 44.1999C10.0599 44.3681 10.5694 44.7468 10.9562 45.3018C11.1895 45.6381 11.3552 46.0047 11.4985 46.3875C12.8286 49.9708 14.1608 53.554 15.4909 57.1372C15.6096 57.4553 15.7283 57.7753 15.8429 58.0953C15.8756 58.1824 15.892 58.2756 15.9329 58.4316ZM4.26664 53.398C4.38124 53.4082 4.50811 53.4305 4.63499 53.4325C7.27069 53.4831 10.0865 53.4568 10.4998 53.3798C10.5919 53.2117 10.4896 53.0658 10.4384 52.918C10.0271 51.7269 9.61172 50.5359 9.19631 49.3449C8.96712 48.6886 8.7543 48.0262 8.50259 47.378C8.26113 46.7521 7.97668 46.5881 7.30343 46.6124C7.19088 46.6164 7.07629 46.6347 6.96578 46.6549C6.69157 46.7056 6.48284 46.8473 6.35802 47.0965C6.25775 47.2991 6.15338 47.5016 6.07971 47.7143C5.89554 48.2308 5.72569 48.7554 5.55175 49.276C5.14862 50.4711 4.74344 51.6642 4.34645 52.8592C4.2912 53.0213 4.17865 53.1813 4.26664 53.398Z" fill="#434E24"/>
</svg>
